<?xml version="1.0" standalone="no"?>
<!DOCTYPE svg PUBLIC "-//W3C//DTD SVG 20010904//EN"
 "http://www.w3.org/TR/2001/REC-SVG-20010904/DTD/svg10.dtd">
<svg version="1.0" xmlns="http://www.w3.org/2000/svg"
 width="443.000000pt" height="111.000000pt" viewBox="0 0 443.000000 111.000000"
 preserveAspectRatio="xMidYMid meet">

<g transform="translate(0.000000,111.000000) scale(0.100000,-0.100000)"
fill="#000000" stroke="none">
<path d="M115 1011 c-11 -5 -29 -19 -40 -31 -19 -21 -20 -36 -20 -446 l0 -424
28 -27 27 -28 453 -3 c248 -2 467 0 486 3 18 4 44 18 57 32 l24 26 0 421 c0
458 1 445 -57 475 -26 13 -926 15 -958 2z m635 -238 c58 -20 110 -40 117 -45
6 -5 21 -51 34 -101 l22 -92 -29 -47 c-16 -26 -55 -65 -87 -88 -31 -23 -57
-45 -57 -50 0 -5 9 -24 20 -42 27 -44 25 -58 -6 -58 -26 0 -144 84 -144 103 0
5 -7 4 -15 -3 -12 -10 -24 -5 -71 34 -52 43 -61 46 -113 46 -65 0 -63 -1 -120
68 l-44 53 12 57 c24 120 146 192 341 201 19 0 82 -15 140 -36z"/>
<path d="M515 771 c-22 -4 -65 -21 -95 -37 l-55 -29 85 -5 c57 -3 88 -1 95 6
6 7 42 13 80 15 65 4 70 2 70 -16 0 -18 -6 -20 -61 -17 -70 4 -94 -11 -74 -47
9 -18 20 -21 74 -21 57 0 65 3 80 25 15 22 23 25 81 25 49 0 65 3 65 14 0 21
-17 30 -117 64 -93 32 -144 37 -228 23z"/>
<path d="M317 652 c-10 -10 -17 -22 -17 -25 0 -4 40 -7 90 -7 l90 0 20 -40 20
-40 89 0 c71 0 90 -3 95 -15 5 -13 21 -15 88 -13 72 3 83 5 86 22 4 17 -1 19
-56 13 -45 -4 -62 -2 -66 8 -8 21 4 25 64 25 56 0 57 1 52 25 -4 24 -8 25 -68
25 -53 0 -66 -3 -76 -20 -11 -18 -24 -20 -100 -20 l-88 0 -20 40 -20 40 -84 0
c-68 0 -86 -3 -99 -18z"/>
<path d="M295 580 c-7 -11 8 -42 30 -60 13 -11 18 -10 28 3 24 31 93 23 80 -9
-4 -10 -13 -14 -29 -10 -17 5 -26 1 -34 -14 -10 -19 -8 -20 48 -20 56 0 63 -3
116 -47 l57 -46 29 22 30 22 0 -33 c1 -27 9 -39 46 -66 l45 -34 -20 40 -20 40
72 48 72 49 -74 3 c-61 2 -77 7 -88 22 -18 26 -113 29 -113 4 0 -11 8 -14 33
-12 26 2 32 0 32 -17 0 -17 -6 -20 -40 -17 -22 2 -42 9 -44 15 -2 7 -16 23
-31 37 -14 14 -35 40 -45 58 -19 32 -20 32 -97 32 -42 0 -80 -4 -83 -10z"/>
<path d="M1340 625 l0 -165 50 0 50 0 0 165 0 165 -50 0 -50 0 0 -165z"/>
<path d="M1470 746 c0 -43 1 -45 33 -48 l32 -3 0 -70 0 -70 -32 -3 c-32 -3
-33 -5 -33 -48 l0 -44 48 0 c41 0 53 5 80 33 32 33 32 34 32 133 0 100 0 100
-33 132 -28 27 -41 32 -80 32 l-47 0 0 -44z"/>
<path d="M1690 630 l0 -160 45 0 45 0 0 160 0 160 -45 0 -45 0 0 -160z"/>
<path d="M1810 745 c0 -43 1 -45 29 -45 41 0 53 -20 49 -82 l-3 -53 -37 -3
c-38 -3 -38 -4 -38 -48 0 -37 3 -44 20 -44 20 0 21 -3 53 -130 l13 -55 47 -3
c26 -2 47 0 47 3 0 4 -11 52 -26 107 l-25 101 20 21 c18 19 21 35 21 114 l0
91 -37 35 c-33 31 -45 36 -85 36 l-48 0 0 -45z"/>
<path d="M2111 673 c-12 -65 -25 -128 -28 -141 -5 -22 -3 -23 43 -20 l49 3 11
55 c6 31 14 48 17 40 5 -14 27 -115 27 -125 0 -3 -35 -5 -79 -5 l-78 0 -20
-100 -20 -100 47 0 c47 0 48 0 54 38 14 76 8 72 112 72 69 0 94 3 94 13 -1 6
-18 95 -38 197 l-38 185 -65 3 -65 3 -23 -118z"/>
<path d="M2442 757 l-32 -33 0 -190 0 -190 33 -32 c23 -22 43 -32 65 -32 31 0
32 1 32 44 0 35 -4 45 -20 49 -19 5 -20 14 -20 162 0 148 1 157 20 162 16 4
20 14 20 49 0 43 -1 44 -33 44 -24 0 -42 -9 -65 -33z"/>
<path d="M2570 747 c0 -34 4 -44 23 -52 13 -6 23 -21 25 -37 3 -26 7 -28 48
-28 l44 0 0 48 c0 41 -5 53 -33 80 -25 24 -42 32 -70 32 -37 0 -37 0 -37 -43z"/>
<path d="M2770 745 l0 -45 140 0 140 0 0 45 0 45 -140 0 -140 0 0 -45z"/>
<path d="M3110 670 l0 -120 50 0 50 0 0 120 0 120 -50 0 -50 0 0 -120z"/>
<path d="M3302 757 l-32 -33 0 -190 0 -190 33 -32 c23 -22 43 -32 65 -32 31 0
32 1 32 44 0 35 -4 45 -20 49 -19 5 -20 14 -20 162 0 148 1 157 20 162 16 4
20 14 20 49 0 43 -1 44 -33 44 -24 0 -42 -9 -65 -33z"/>
<path d="M3430 746 c0 -35 4 -45 20 -49 15 -4 20 -14 20 -36 0 -30 1 -31 45
-31 l45 0 0 48 c0 41 -5 53 -33 80 -23 22 -43 32 -65 32 -31 0 -32 -1 -32 -44z"/>
<path d="M3620 567 l0 -223 33 -32 c25 -24 42 -32 70 -32 l37 0 0 44 c0 39 -3
45 -22 48 -23 3 -23 4 -26 211 l-2 207 -45 0 -45 0 0 -223z"/>
<path d="M3830 584 c0 -197 -1 -206 -20 -211 -16 -4 -20 -14 -20 -49 0 -43 1
-44 33 -44 24 0 42 9 65 33 l32 33 0 222 0 222 -45 0 -45 0 0 -206z"/>
<path d="M3982 782 c2 -5 32 -84 68 -176 l65 -167 40 3 39 3 53 135 c29 74 60
152 68 173 l15 37 -49 0 -49 0 -37 -92 c-20 -51 -38 -94 -40 -96 -2 -2 -20 40
-40 92 l-37 96 -50 0 c-27 0 -48 -4 -46 -8z"/>
<path d="M3980 488 l0 -208 45 0 45 0 0 98 c0 93 -2 104 -45 207 l-44 110 -1
-207z"/>
<path d="M4283 582 c-40 -100 -43 -114 -43 -205 l0 -97 45 0 45 0 0 205 c0
113 -1 205 -2 205 -2 0 -22 -49 -45 -108z"/>
<path d="M2869 653 c-1 -24 -1 -299 0 -340 1 -32 2 -33 46 -33 l45 0 0 195 0
195 -45 0 c-36 0 -45 -4 -46 -17z"/>
<path d="M3117 514 c-4 -4 -7 -58 -7 -121 l0 -113 50 0 51 0 -3 118 -3 117
-40 3 c-23 2 -44 0 -48 -4z"/>
<path d="M2618 408 c-2 -25 -8 -34 -25 -36 -20 -3 -23 -9 -23 -48 l0 -44 38 0
c30 0 45 7 70 33 27 28 32 41 32 80 l0 47 -44 0 c-43 0 -45 -1 -48 -32z"/>
<path d="M3470 409 c0 -22 -5 -32 -20 -36 -16 -4 -20 -14 -20 -49 0 -43 1 -44
33 -44 24 0 42 9 65 33 27 28 32 41 32 80 l0 47 -45 0 c-44 0 -45 -1 -45 -31z"/>
<path d="M1690 355 l0 -75 45 0 45 0 0 75 0 75 -45 0 -45 0 0 -75z"/>
<path d="M1340 350 l0 -70 50 0 50 0 0 70 0 70 -50 0 -50 0 0 -70z"/>
<path d="M2260 343 c1 -51 11 -63 56 -63 47 0 51 7 38 58 -5 18 -13 22 -50 22
-35 0 -44 -3 -44 -17z"/>
</g>
</svg>
